<?xml version="1.0" encoding="UTF-8"?>
<svg version="1.1" xmlns="http://www.w3.org/2000/svg" width="512" height="512">
<path d="M0 0 C168.96 0 337.92 0 512 0 C512 168.96 512 337.92 512 512 C343.04 512 174.08 512 0 512 C0 343.04 0 174.08 0 0 Z " fill="#1E7479" transform="translate(0,0)"/>
<path d="M0 0 C1.58554688 -0.0009668 1.58554688 -0.0009668 3.203125 -0.00195312 C11.4524413 0.05337766 19.38055353 0.73016345 27.5 2.1875 C27.5 2.8475 27.5 3.5075 27.5 4.1875 C28.47839844 4.47753906 28.47839844 4.47753906 29.4765625 4.7734375 C31.28270384 5.31155041 33.08733974 5.85473594 34.890625 6.40234375 C36.87838304 7.00045657 38.87493525 7.56942646 40.875 8.125 C43.86972861 9.33715205 45.47138163 10.69073893 47.5 13.1875 C47.5 13.8475 47.5 14.5075 47.5 15.1875 C48.098125 15.31125 48.69625 15.435 49.3125 15.5625 C51.5 16.1875 51.5 16.1875 54.5 18.1875 C54.5 18.8475 54.5 19.5075 54.5 20.1875 C55.098125 20.455625 55.69625 20.72375 56.3125 21 C58.49847854 22.18667406 59.91332594 23.28349113 61.5 25.1875 C61.5 25.8475 61.5 26.5075 61.5 27.1875 C62.16 27.1875 62.82 27.1875 63.5 27.1875 C63.5 27.8475 63.5 28.5075 63.5 29.1875 C64.10457031 29.29320312 64.70914063 29.39890625 65.33203125 29.5078125 C69.10581039 30.69094326 71.11515257 34.18416467 73.5 37.1875 C75.03916869 39.08536192 76.58096984 40.98109108 78.125 42.875 C79.22714844 44.24205078 79.22714844 44.24205078 80.3515625 45.63671875 C82.30363587 47.95436223 84.35525453 50.05131639 86.5 52.1875 C87.75628091 53.66486555 88.98591374 55.16531698 90.1875 56.6875 C90.78949219 57.4403125 91.39148438 58.193125 92.01171875 58.96875 C93.46307567 61.1324527 93.9154154 62.69618619 94.5 65.1875 C95.16 65.5175 95.82 65.8475 96.5 66.1875 C95.95276317 69.56212715 95.4451 71.26985 93.5 74.1875 C92.84 74.1875 92.18 74.1875 91.5 74.1875 C91.231875 74.75984375 90.96375 75.3321875 90.6875 75.921875 C89.45867364 78.26634634 88.07477824 80.31154938 86.5 82.4375 C85.984375 83.14390625 85.46875 83.8503125 84.9375 84.578125 C84.463125 85.10921875 83.98875 85.6403125 83.5 86.1875 C82.84 86.1875 82.18 86.1875 81.5 86.1875 C81.27570313 86.70828125 81.05140625 87.2290625 80.8203125 87.765625 C79.00575891 91.09409609 76.71085825 93.96042576 74.375 96.9375 C73.67310547 97.84048828 73.67310547 97.84048828 72.95703125 98.76171875 C71.80774993 100.23936616 70.65428765 101.71376005 69.5 103.1875 C65.6755293 102.43360023 64.76203965 101.3346856 62.5 98.1875 C61.51 97.8575 60.52 97.5275 59.5 97.1875 C57.42469613 94.26670195 56.5 92.81203269 56.5 89.1875 C55.51 88.8575 54.52 88.5275 53.5 88.1875 C51.9921875 86.7265625 51.9921875 86.7265625 50.375 84.8125 C49.7665625 84.09707031 49.158125 83.38164062 48.53125 82.64453125 C45.56227683 79.05321563 42.62563967 75.43626717 39.7109375 71.80078125 C32.43609212 63.20206825 22.41162537 53.51793186 10.76953125 52.3515625 C-4.02151128 51.28233051 -14.88940921 56.01347198 -26.5 65.1875 C-40.89081302 78.5604952 -44.85762432 99.18877475 -45.66796875 118.109375 C-45.73842093 131.91800133 -44.92374044 146.16811071 -37.5 158.1875 C-37.5 159.5075 -37.5 160.8275 -37.5 162.1875 C-36.51 162.5175 -35.52 162.8475 -34.5 163.1875 C-33.2109375 164.90234375 -33.2109375 164.90234375 -31.875 167.125 C-27.60402231 173.80306238 -22.25794185 179.56926319 -16.5625 185.0625 C-14.5 187.1875 -14.5 187.1875 -13.4375 189.4375 C-12.64646408 191.39063859 -12.64646408 191.39063859 -10.5 191.875 C-9.51 192.0296875 -9.51 192.0296875 -8.5 192.1875 C-5.75473365 193.56013317 -5.05644352 195.59342747 -3.5 198.1875 C-2.84 198.5175 -2.18 198.8475 -1.5 199.1875 C-0.375 201.6875 -0.375 201.6875 -0.5 205.1875 C-2.13108227 207.51489225 -4.01047056 209.45939471 -5.9765625 211.51171875 C-14.74183008 220.80615883 -22.41817249 230.94201747 -26.5 243.1875 C-28.15 242.8575 -29.8 242.5275 -31.5 242.1875 C-31.5 241.5275 -31.5 240.8675 -31.5 240.1875 C-32.056875 239.98125 -32.61375 239.775 -33.1875 239.5625 C-35.81059728 238.00282054 -37.34181506 236.06618674 -39.21875 233.69140625 C-40.57877806 231.997361 -40.57877806 231.997361 -42.9375 230.25 C-45.716272 228.01342741 -47.82039502 225.57916185 -50.09375 222.84765625 C-51.55780295 221.07296446 -51.55780295 221.07296446 -53.5625 219.125 C-58.31960298 214.36789702 -61.72107039 209.36607515 -65.0703125 203.5546875 C-66.44640449 201.16301034 -66.44640449 201.16301034 -68.1796875 199.0703125 C-69.5 197.1875 -69.5 197.1875 -69.5 194.1875 C-70.16 194.1875 -70.82 194.1875 -71.5 194.1875 C-75.51204692 187.30773569 -78.71957396 180.43188156 -81.421875 172.9375 C-82.44625864 170.03765001 -82.44625864 170.03765001 -84.5 167.1875 C-84.91500385 165.51392237 -85.26484589 163.82337932 -85.5625 162.125 C-86.1778309 158.53962948 -86.1778309 158.53962948 -87.5 155.1875 C-87.7322646 152.47487884 -87.91936235 149.77976874 -88.0625 147.0625 C-88.10568359 146.30839844 -88.14886719 145.55429687 -88.19335938 144.77734375 C-88.2994832 142.91428112 -88.40025001 141.05091476 -88.5 139.1875 C-89.16 139.1875 -89.82 139.1875 -90.5 139.1875 C-90.5 126.9775 -90.5 114.7675 -90.5 102.1875 C-89.84 102.1875 -89.18 102.1875 -88.5 102.1875 C-88.52320312 101.52105469 -88.54640625 100.85460937 -88.5703125 100.16796875 C-88.70537894 93.26993263 -87.95946583 86.92449852 -86.5 80.1875 C-85.84 80.1875 -85.18 80.1875 -84.5 80.1875 C-84.5928125 79.1975 -84.5928125 79.1975 -84.6875 78.1875 C-84.43182247 74.09665946 -83.04304956 70.98083016 -81.5 67.1875 C-80.84 67.1875 -80.18 67.1875 -79.5 67.1875 C-79.17 65.2075 -78.84 63.2275 -78.5 61.1875 C-77.84 61.1875 -77.18 61.1875 -76.5 61.1875 C-76.37625 60.15625 -76.2525 59.125 -76.125 58.0625 C-75.56110186 54.56633154 -74.71317941 51.50352373 -73.5 48.1875 C-72.84 48.1875 -72.18 48.1875 -71.5 48.1875 C-71.190625 46.9809375 -71.190625 46.9809375 -70.875 45.75 C-69.09292361 41.13280207 -66.63828288 37.02507417 -63.5 33.1875 C-62.84 33.1875 -62.18 33.1875 -61.5 33.1875 C-61.231875 32.61 -60.96375 32.0325 -60.6875 31.4375 C-59.47070811 29.13199957 -58.19666121 27.16693808 -56.5 25.1875 C-55.84 25.1875 -55.18 25.1875 -54.5 25.1875 C-54.231875 24.589375 -53.96375 23.99125 -53.6875 23.375 C-52.50082594 21.18902146 -51.40400887 19.77417406 -49.5 18.1875 C-48.84 18.1875 -48.18 18.1875 -47.5 18.1875 C-47.5 17.5275 -47.5 16.8675 -47.5 16.1875 C-46.84 16.1875 -46.18 16.1875 -45.5 16.1875 C-45.5 15.5275 -45.5 14.8675 -45.5 14.1875 C-44.21086513 13.51595067 -42.91859796 12.85041141 -41.625 12.1875 C-40.90570313 11.81625 -40.18640625 11.445 -39.4453125 11.0625 C-37.5 10.1875 -37.5 10.1875 -35.5 10.1875 C-35.17 9.1975 -34.84 8.2075 -34.5 7.1875 C-29.49680072 4.37025596 -24.27717073 2.57937677 -18.5 3.1875 C-18.5 2.5275 -18.5 1.8675 -18.5 1.1875 C-12.32235616 0.10294174 -6.26379451 -0.00393454 0 0 Z " fill="#FBFCFD" transform="translate(177.5,131.8125)"/>
<path d="M0 0 C4.34311482 -0.37226698 6.45142206 0.52561508 10 3 C12.17578125 5.3828125 12.17578125 5.3828125 14.3125 8.125 C17.84571744 12.5992251 21.52525676 16.81405765 25.46875 20.9296875 C27.2231471 23.30170399 27.50933911 25.12890509 28 28 C29.83284443 29.12516085 29.83284443 29.12516085 32 30 C34.5004727 31.78605193 35.78424932 33.09882599 36.5078125 36.12109375 C37.00911046 40.03507401 37.1349164 43.18806704 36 47 C35.34 47 34.68 47 34 47 C33.67 48.32 33.34 49.64 33 51 C32.34 51 31.68 51 31 51 C30.72800781 51.57878906 30.45601562 52.15757813 30.17578125 52.75390625 C27.11014021 58.61019727 22.70058166 63.41406667 18 68 C13.24681629 72.86104771 13.24681629 72.86104771 9.9375 78.6875 C9 81 9 81 6.328125 83.13671875 C2.43970988 86.27818702 -0.28634194 90.08764696 -3.1875 94.125 C-4.22049333 95.54584585 -5.25557632 96.96517534 -6.29296875 98.3828125 C-6.7418042 99.00559082 -7.19063965 99.62836914 -7.65307617 100.27001953 C-9 102 -9 102 -10.5793457 103.53076172 C-12.25616037 105.10268315 -12.25616037 105.10268315 -13.4375 108.125 C-15 111 -15 111 -17.0625 111.625 C-17.701875 111.74875 -18.34125 111.8725 -19 112 C-19.67935619 113.32691273 -20.34377746 114.66149554 -21 116 C-22.04703991 117.26022587 -23.13368091 118.48821125 -24.25 119.6875 C-28.42266808 124.3402868 -32.19659624 129.39319249 -35 135 C-35.99 135.33 -36.98 135.66 -38 136 C-39.26796755 137.46266144 -39.26796755 137.46266144 -40.375 139.25 C-42.61722747 142.55292191 -45.17360152 145.17360152 -48 148 C-48.85339017 149.15207672 -49.68602941 150.31974264 -50.5 151.5 C-52.70367035 154.69152257 -55.21812166 157.28945188 -58 160 C-60.80388377 163.28220927 -60.80388377 163.28220927 -62.9375 167 C-64.11076811 169.20850468 -65.59950837 170.67971099 -67.390625 172.40234375 C-73.32590278 178.29440349 -78.66012134 184.7296041 -83.828125 191.29296875 C-86.82476406 195.0279883 -89.94087699 198.65688084 -93.05395508 202.29492188 C-96.18582396 205.97623177 -99.12148717 209.73863881 -101.87890625 213.70703125 C-102.24886719 214.13371094 -102.61882812 214.56039062 -103 215 C-103.66 215 -104.32 215 -105 215 C-105.25910156 215.56847656 -105.51820313 216.13695312 -105.78515625 216.72265625 C-107.1125061 219.21090372 -108.66881419 221.24280814 -110.4375 223.4375 C-112.4251113 225.9302274 -114.12036602 228.21398404 -115.6875 231 C-117 233 -117 233 -118.5859375 233.7421875 C-122.21549726 234.12981039 -125.4616546 233.06019639 -128.9375 232.125 C-134.41484491 230.71469382 -139.50441368 229.76546737 -145.1875 229.5625 C-149.01960619 229.35678144 -151.57500095 229.15867896 -154.625 226.75 C-156.77775851 224.25733226 -158.38069434 221.85306235 -160 219 C-160.99 218.34 -161.98 217.68 -163 217 C-164.01866229 215.34467377 -165.01810813 213.67739862 -166 212 C-166.556875 211.443125 -167.11375 210.88625 -167.6875 210.3125 C-168.120625 209.879375 -168.55375 209.44625 -169 209 C-169 208.34 -169 207.68 -169 207 C-169.66 207 -170.32 207 -171 207 C-170.40312566 203.65750371 -169.26396123 201.53563658 -167 199 C-166.34 199 -165.68 199 -165 199 C-164.7525 198.28457031 -164.505 197.56914062 -164.25 196.83203125 C-162.86136405 193.68590294 -161.15536054 191.36189037 -159 188.6875 C-158.29875 187.80449219 -157.5975 186.92148438 -156.875 186.01171875 C-156.25625 185.34785156 -155.6375 184.68398437 -155 184 C-154.34 184 -153.68 184 -153 184 C-152.34 182.35 -151.68 180.7 -151 179 C-150.34 179 -149.68 179 -149 179 C-148.71125 178.401875 -148.4225 177.80375 -148.125 177.1875 C-147 175 -147 175 -145 172 C-144.34 172 -143.68 172 -143 172 C-142.34 170.35 -141.68 168.7 -141 167 C-140.34 167 -139.68 167 -139 167 C-138.731875 166.42765625 -138.46375 165.8553125 -138.1875 165.265625 C-136.95867364 162.92115366 -135.57477824 160.87595062 -134 158.75 C-133.484375 158.04359375 -132.96875 157.3371875 -132.4375 156.609375 C-131.963125 156.07828125 -131.48875 155.5471875 -131 155 C-130.34 155 -129.68 155 -129 155 C-128.34 153.35 -127.68 151.7 -127 150 C-126.34 150 -125.68 150 -125 150 C-124.72470459 149.41009277 -124.44940918 148.82018555 -124.16577148 148.21240234 C-123.05173756 146.0981876 -121.86807816 144.43683658 -120.34765625 142.6015625 C-119.82365234 141.96387939 -119.29964844 141.32619629 -118.75976562 140.66918945 C-118.19966797 139.99460693 -117.63957031 139.32002441 -117.0625 138.625 C-112.17773318 132.68891675 -107.36916687 126.70706548 -102.69165039 120.60595703 C-100.7352419 118.0824681 -98.74894657 115.75089272 -96.48046875 113.5 C-92.8376003 109.82844754 -89.99803226 105.64263654 -86.98828125 101.44921875 C-86.33214844 100.64097656 -85.67601562 99.83273438 -85 99 C-84.34 99 -83.68 99 -83 99 C-82.731875 98.443125 -82.46375 97.88625 -82.1875 97.3125 C-79.65040893 92.37184896 -76.93052049 88.93052049 -73 85 C-70.88943178 82.36178973 -68.81978657 79.6970436 -66.76953125 77.01171875 C-66.18558594 76.34785156 -65.60164063 75.68398437 -65 75 C-64.34 75 -63.68 75 -63 75 C-62.773125 74.46375 -62.54625 73.9275 -62.3125 73.375 C-60.9548574 70.91831339 -59.32775677 68.91056589 -57.5 66.7890625 C-55.074613 63.89628322 -52.82588172 60.86707624 -50.55078125 57.85546875 C-49 56 -49 56 -47 55 C-46.06301338 53.33191171 -45.12786601 51.66275141 -44.20410156 49.98730469 C-42.12909879 46.56262452 -39.50757792 43.62908527 -36.875 40.625 C-36.33746094 39.99722656 -35.79992187 39.36945313 -35.24609375 38.72265625 C-31.27488095 34.13744048 -31.27488095 34.13744048 -29 33 C-28.566875 32.278125 -28.13375 31.55625 -27.6875 30.8125 C-25.46838064 27.11396774 -22.93585116 22.96792558 -19 21 C-17.95191959 19.02477154 -16.9479589 17.02518491 -16 15 C-15.34 15 -14.68 15 -14 15 C-13.34 13.35 -12.68 11.7 -12 10 C-11.34 10 -10.68 10 -10 10 C-9.62875 9.13375 -9.62875 9.13375 -9.25 8.25 C-7.79320504 5.62776908 -6.31621258 3.90746919 -4 2 C-2.68 2 -1.36 2 0 2 C0 1.34 0 0.68 0 0 Z " fill="#FBFCFD" transform="translate(423,53)"/>
<path d="M0 0 C2.74400862 0.34152897 3.75350739 0.68639946 5.4921875 2.8984375 C6.17667969 4.12433594 6.17667969 4.12433594 6.875 5.375 C7.38675781 6.27992188 7.89851562 7.18484375 8.42578125 8.1171875 C8.94527344 9.06851563 9.46476563 10.01984375 10 11 C10.76376953 12.36511719 10.76376953 12.36511719 11.54296875 13.7578125 C13.05732033 16.49065263 14.53158956 19.24225356 16 22 C16.44472656 22.80050781 16.88945312 23.60101563 17.34765625 24.42578125 C21.51470615 32.21192036 25 41.0948157 25 50 C25.66 50 26.32 50 27 50 C27.12117187 50.88300781 27.24234375 51.76601562 27.3671875 52.67578125 C27.53476562 53.87589844 27.70234375 55.07601562 27.875 56.3125 C28.03742188 57.48425781 28.19984375 58.65601563 28.3671875 59.86328125 C28.67497932 62.04003854 29.0367496 64.16596877 29.51220703 66.31323242 C31.40021087 75.102418 31.22422799 83.74855573 31.125 92.6875 C31.11494496 94.27538495 31.1058236 95.8632761 31.09765625 97.45117188 C31.07585443 101.30093725 31.04146559 105.15039827 31 109 C30.34 109 29.68 109 29 109 C29.04125 110.2375 29.0825 111.475 29.125 112.75 C29.125 120.78168628 27.61358659 128.43128642 25 136 C24.02344941 139.25780438 23.05709919 142.51836712 22.09765625 145.78125 C20.9891172 149.03191256 19.60333141 151.96691723 18 155 C17.34 155 16.68 155 16 155 C15.7834375 156.423125 15.7834375 156.423125 15.5625 157.875 C15 161 15 161 14 163 C13.34 163 12.68 163 12 163 C12 163.99 12 164.98 12 166 C11.34 166 10.68 166 10 166 C9.67 167.98 9.34 169.96 9 172 C8.34 172 7.68 172 7 172 C6.79375 172.763125 6.5875 173.52625 6.375 174.3125 C3.64098418 181.64463332 0.5557654 188.44738514 -6 193 C-6.6837045 194.32467746 -7.34964186 195.65863633 -8 197 C-9.6222454 198.70993434 -11.29413425 200.37347684 -13 202 C-13.804375 202.825 -14.60875 203.65 -15.4375 204.5 C-23.125 212 -23.125 212 -26 212 C-26 212.66 -26 213.32 -26 214 C-26.9590625 214.433125 -26.9590625 214.433125 -27.9375 214.875 C-30.15206079 215.82823451 -30.15206079 215.82823451 -31 218 C-37.23076923 221 -37.23076923 221 -41 221 C-41 221.66 -41 222.32 -41 223 C-56.93299586 228.31099862 -73.44177826 229.50540362 -88.9921875 221.90234375 C-90.98137911 221.00836853 -92.87324427 220.46254553 -95 220 C-95 219.34 -95 218.68 -95 218 C-95.99 218 -96.98 218 -98 218 C-98 217.34 -98 216.68 -98 216 C-98.58652344 215.896875 -99.17304688 215.79375 -99.77734375 215.6875 C-102.34728258 214.89258043 -103.60423618 213.82245581 -105.5625 212 C-107.84887208 209.88166863 -108.96753059 209.01082314 -112 208 C-113.60546875 206.4765625 -113.60546875 206.4765625 -115.1875 204.625 C-115.71730469 204.01914062 -116.24710937 203.41328125 -116.79296875 202.7890625 C-118 201 -118 201 -118 198 C-118.8353125 197.6596875 -118.8353125 197.6596875 -119.6875 197.3125 C-122.77016865 195.56287725 -124.78929205 193.77917571 -127 191 C-127.08089154 187.11720626 -126.22967527 185.34080847 -124.0625 182.125 C-123.381875 181.42375 -122.70125 180.7225 -122 180 C-121.34 180 -120.68 180 -120 180 C-119.79375 179.443125 -119.5875 178.88625 -119.375 178.3125 C-117.22975617 174.70458993 -114.09524518 171.68522588 -110.04785156 170.36157227 C-106.63691377 169.7593311 -103.2013679 169.89786415 -99.75 169.9375 C-99.00492187 169.94201172 -98.25984375 169.94652344 -97.4921875 169.95117188 C-95.6614236 169.96290754 -93.83070127 169.9808415 -92 170 C-92 170.66 -92 171.32 -92 172 C-90.948125 172.185625 -90.948125 172.185625 -89.875 172.375 C-86.82343613 173.03838345 -83.94659062 173.97211955 -81 175 C-81 175.66 -81 176.32 -81 177 C-77.41673499 177.05814085 -73.83359162 177.09364357 -70.25 177.125 C-68.72632813 177.15013672 -68.72632813 177.15013672 -67.171875 177.17578125 C-65.70234375 177.18544922 -65.70234375 177.18544922 -64.203125 177.1953125 C-62.85202637 177.21102295 -62.85202637 177.21102295 -61.47363281 177.22705078 C-58.82372419 176.98381993 -57.23159444 176.42939958 -55 175 C-54.67 174.34 -54.34 173.68 -54 173 C-49.5 170 -49.5 170 -47 170 C-47 169.34 -47 168.68 -47 168 C-45.89056311 166.89056311 -44.77512432 165.7867225 -43.63671875 164.70703125 C-40.75022438 161.69653473 -38.29813287 158.32355835 -35.76953125 155.01171875 C-35.18558594 154.34785156 -34.60164063 153.68398438 -34 153 C-33.34 153 -32.68 153 -32 153 C-31.67 151.35 -31.34 149.7 -31 148 C-30.34 148 -29.68 148 -29 148 C-28.89042969 147.40832031 -28.78085937 146.81664062 -28.66796875 146.20703125 C-27.75281262 141.64613118 -26.91149857 137.76068565 -24 134 C-23.34 134 -22.68 134 -22 134 C-21.90203125 133.443125 -21.8040625 132.88625 -21.703125 132.3125 C-20.91029334 128.26632462 -20.03374086 124.79207802 -18 121.1875 C-15.25024698 116.12918568 -14.71512829 110.6457497 -14 105 C-13.34 105 -12.68 105 -12 105 C-12.28346233 87.23354829 -12.28346233 87.23354829 -15.37890625 69.8046875 C-16.04604016 66.7920954 -16.10496164 64.07583235 -16 61 C-16.66 61 -17.32 61 -18 61 C-18 59.35 -18 57.7 -18 56 C-18.66 56 -19.32 56 -20 56 C-20.495 52.535 -20.495 52.535 -21 49 C-21.66 49 -22.32 49 -23 49 C-23.39832031 48.07767578 -23.39832031 48.07767578 -23.8046875 47.13671875 C-24.15789062 46.32847656 -24.51109375 45.52023438 -24.875 44.6875 C-25.22304688 43.88699219 -25.57109375 43.08648437 -25.9296875 42.26171875 C-27.02571894 39.8038166 -27.02571894 39.8038166 -29 37 C-28.67918559 32.18778391 -24.99337724 28.97801574 -21.7265625 25.76171875 C-18.70846277 22.70470369 -15.90896337 19.51879085 -13.125 16.25 C-12.34044434 15.33226807 -12.34044434 15.33226807 -11.54003906 14.39599609 C-7.55108634 9.70521464 -3.69922615 4.9236179 0 0 Z " fill="#FBFCFC" transform="translate(398,202)"/>
<path d="M0 0 C0.99 0.33 1.98 0.66 3 1 C3.6875 3.0625 3.6875 3.0625 4 5 C4.66 5 5.32 5 6 5 C8.32996085 7.3116008 8.96680527 8.68077949 9.30883789 11.9699707 C9.28039795 13.11038818 9.25195801 14.25080566 9.22265625 15.42578125 C9.20267578 16.69147949 9.18269531 17.95717773 9.16210938 19.26123047 C9.14559326 19.92427185 9.12907715 20.58731323 9.11206055 21.27044678 C8.84387276 32.32064252 8.86103429 43.11419238 11 54 C11.66 54 12.32 54 13 54 C13.2475 54.94875 13.495 55.8975 13.75 56.875 C14.66239093 60.05852032 14.66239093 60.05852032 16.9375 61.1875 C17.618125 61.455625 18.29875 61.72375 19 62 C19.46019531 62.46792969 19.92039063 62.93585938 20.39453125 63.41796875 C26.2781469 69.2156922 34.12455639 69.98526051 42 70.1875 C46.35801174 70.15418187 49.89483094 69.42788489 54 68 C54 67.34 54 66.68 54 66 C55.051875 65.4121875 55.051875 65.4121875 56.125 64.8125 C59.86302202 62.4559209 62.26670095 59.42836479 65 56 C68.83039408 57.27679803 68.98757415 58.59435626 71 62 C72.64429829 63.68873879 74.31384218 65.35305515 76 67 C77.58058607 68.82974249 79.13049428 70.68081099 80.66796875 72.546875 C81.9579691 74.12779183 81.9579691 74.12779183 84 75 C84 75.66 84 76.32 84 77 C84.56203125 77.26554687 85.1240625 77.53109375 85.703125 77.8046875 C88.17930222 79.09331034 90.43844882 80.56130361 92.75 82.125 C93.54921875 82.66382813 94.3484375 83.20265625 95.171875 83.7578125 C95.77515625 84.16773438 96.3784375 84.57765625 97 85 C95.57268007 87.92846676 94.13071088 90.51417063 92 93 C91.34 93 90.68 93 90 93 C89.9175 93.598125 89.835 94.19625 89.75 94.8125 C88.78423221 97.62932273 87.51131433 98.47799132 85 100 C84.34 100 83.68 100 83 100 C83 100.66 83 101.32 83 102 C82.0925 102.598125 81.185 103.19625 80.25 103.8125 C77.07771001 105.94769518 75.31937493 108.01794652 73 111 C72.34 111 71.68 111 71 111 C71 111.66 71 112.32 71 113 C69.75336669 113.50833591 68.50250613 114.00631145 67.25 114.5 C66.55390625 114.7784375 65.8578125 115.056875 65.140625 115.34375 C63 116 63 116 59 116 C59 116.66 59 117.32 59 118 C45.15400312 122.02792637 30.47906657 120.70199997 17 116 C15.33911955 115.63893903 13.67381019 115.29537827 12 115 C12 114.34 12 113.68 12 113 C11.01 113 10.02 113 9 113 C9 112.34 9 111.68 9 111 C8.113125 110.731875 7.22625 110.46375 6.3125 110.1875 C3.2090334 109.0749365 0.68889315 107.89804222 -2 106 C-2 105.34 -2 104.68 -2 104 C-2.61875 103.7525 -3.2375 103.505 -3.875 103.25 C-6.40358627 101.76259631 -6.71839004 100.56321991 -8 98 C-8.8971875 97.58041016 -8.8971875 97.58041016 -9.8125 97.15234375 C-17.10579713 93.31033901 -20.94832571 84.70852888 -23.40625 77.25 C-24 75 -24 75 -24 73 C-24.66 73 -25.32 73 -26 73 C-28.93603958 60.10239757 -30.47836459 42.74398811 -26 30 C-25.34 29.67 -24.68 29.34 -24 29 C-23.5875 27.96875 -23.175 26.9375 -22.75 25.875 C-21.02579671 21.60428109 -18.39547519 18.11173075 -15 15 C-14.34 15 -13.68 15 -13 15 C-13 14.34 -13 13.68 -13 13 C-11.625 11.375 -11.625 11.375 -10 10 C-9.34 10 -8.68 10 -8 10 C-8 9.34 -8 8.68 -8 8 C-7.34 8 -6.68 8 -6 8 C-6 7.34 -6 6.68 -6 6 C-4.34997172 4.64613064 -2.6825613 3.31321858 -1 2 C-0.67 1.34 -0.34 0.68 0 0 Z " fill="#FAFCFC" transform="translate(192,350)"/>
<path d="M0 0 C0 0.66 0 1.32 0 2 C0.680625 2.0825 1.36125 2.165 2.0625 2.25 C5.8746907 3.22332528 8.64070329 4.95807455 12 7 C12 7.66 12 8.32 12 9 C12.5775 9.061875 13.155 9.12375 13.75 9.1875 C16.93353478 10.33710978 18.10585921 12.25676162 20 15 C20.495 16.485 20.495 16.485 21 18 C21.66 18.33 22.32 18.66 23 19 C23 19.66 23 20.32 23 21 C23.66 21 24.32 21 25 21 C29.13909814 31.75426391 30.28105903 39.92642578 27 51 C21.23955788 50.39363767 16.27985631 48.24341721 11 46 C11 45.34 11 44.68 11 44 C-2.62109036 43.67168156 -2.62109036 43.67168156 -16 46 C-16 46.66 -16 47.32 -16 48 C-16.9590625 48.433125 -16.9590625 48.433125 -17.9375 48.875 C-20.15206079 49.82823451 -20.15206079 49.82823451 -21 52 C-22.0725 52.4125 -23.145 52.825 -24.25 53.25 C-28.46255717 54.91945284 -30.25583086 57.47178254 -33 61 C-33.66 61 -34.32 61 -35 61 C-35.268125 61.556875 -35.53625 62.11375 -35.8125 62.6875 C-37.82723068 66.6109229 -39.80100329 69.94641223 -43 73 C-43.33 73.66 -43.66 74.32 -44 75 C-44.66 75 -45.32 75 -46 75 C-46.2578125 75.5775 -46.515625 76.155 -46.78125 76.75 C-48.50935148 79.94034119 -50.89608267 82.34490324 -53.34375 85 C-55.07252956 86.9189647 -55.07252956 86.9189647 -56.03125 89.1875 C-57 91 -57 91 -60 92 C-62.01906808 92.09416778 -64.04124313 92.12991192 -66.0625 92.125 C-67.12597656 92.12757813 -68.18945312 92.13015625 -69.28515625 92.1328125 C-72 92 -72 92 -74 91 C-74 90.34 -74 89.68 -74 89 C-74.62390625 88.74605469 -75.2478125 88.49210937 -75.890625 88.23046875 C-79.07627519 86.3721728 -79.45500393 84.31516423 -80.46484375 80.8828125 C-82.30925953 70.94720048 -81.04419681 60.80119363 -79 51 C-78.34 51 -77.68 51 -77 51 C-76.505 48.03 -76.505 48.03 -76 45 C-75.34 45 -74.68 45 -74 45 C-73.731875 44.113125 -73.46375 43.22625 -73.1875 42.3125 C-71.45386343 37.4765664 -69.3049473 34.22890479 -65.66088867 30.64331055 C-63.56234636 28.5669783 -61.49562575 26.46040598 -59.42578125 24.35546875 C-57.72148124 22.63268678 -56.01705072 20.91003392 -54.3125 19.1875 C-53.44560547 18.30384766 -52.57871094 17.42019531 -51.68554688 16.50976562 C-50.85732422 15.67509766 -50.02910156 14.84042969 -49.17578125 13.98046875 C-48.42208252 13.21629639 -47.66838379 12.45212402 -46.8918457 11.66479492 C-45 10 -45 10 -43 10 C-43 9.34 -43 8.68 -43 8 C-39.53846154 5 -39.53846154 5 -37 5 C-37 4.34 -37 3.68 -37 3 C-35.02 2.67 -33.04 2.34 -31 2 C-31 1.34 -31 0.68 -31 0 C-20.92322305 -4.83685294 -10.19163622 -4.21722878 0 0 Z " fill="#F9FBFB" transform="translate(298,307)"/>
<path d="M0 0 C4.56603911 3.82273042 8.44572429 8.04766253 12.2578125 12.6015625 C13.65090797 14.25091085 13.65090797 14.25091085 15.13671875 15.6796875 C21.06831651 21.68599053 25.93207939 28.85863687 30.828125 35.70703125 C34.13296302 40.66953353 34.13296302 40.66953353 38.6875 44.25 C39.35265625 45.58804688 39.35265625 45.58804688 40.03125 46.953125 C41.75738436 50.38910943 43.73792264 53.04417665 46.1875 56 C46.9609375 56.94359375 47.734375 57.8871875 48.53125 58.859375 C50.64353123 61.39859573 50.64353123 61.39859573 53.6875 63.25 C53.6875 64.57 53.6875 65.89 53.6875 67.25 C49.7275 68.24 49.7275 68.24 45.6875 69.25 C45.6875 69.91 45.6875 70.57 45.6875 71.25 C44.883125 71.518125 44.07875 71.78625 43.25 72.0625 C41.9815625 72.6503125 41.9815625 72.6503125 40.6875 73.25 C40.1925 74.735 40.1925 74.735 39.6875 76.25 C39.0275 76.25 38.3675 76.25 37.6875 76.25 C37.6875 76.91 37.6875 77.57 37.6875 78.25 C37.0275 78.25 36.3675 78.25 35.6875 78.25 C35.6875 78.91 35.6875 79.57 35.6875 80.25 C34.0438186 81.93933922 32.3732124 83.60259924 30.6875 85.25 C30.0275 86.075 29.3675 86.9 28.6875 87.75 C26.52322172 90.45534785 24.16818909 92.8345922 21.6875 95.25 C21.0275 95.91 20.3675 96.57 19.6875 97.25 C17.20047225 97.02907669 15.99869435 96.54446835 14.17944336 94.82299805 C13.71675049 94.22527588 13.25405762 93.62755371 12.77734375 93.01171875 C12.26236328 92.35623047 11.74738281 91.70074219 11.21679688 91.02539062 C10.69150391 90.33638672 10.16621094 89.64738281 9.625 88.9375 C8.83125977 87.92139648 8.83125977 87.92139648 8.02148438 86.88476562 C7.00663185 85.58213811 5.99769356 84.27487465 4.99560547 82.96240234 C3.9509118 81.59482463 2.8868331 80.24206233 1.81640625 78.89453125 C0.6875 77.25 0.6875 77.25 0.6875 75.25 C0.0275 75.25 -0.6325 75.25 -1.3125 75.25 C-2.6015625 73.7890625 -2.6015625 73.7890625 -3.9375 71.875 C-4.38351563 71.24851562 -4.82953125 70.62203125 -5.2890625 69.9765625 C-6.3125 68.25 -6.3125 68.25 -6.3125 66.25 C-6.93125 66.023125 -7.55 65.79625 -8.1875 65.5625 C-10.96098291 63.84946644 -11.16933637 62.25080453 -12.3125 59.25 C-13.62223998 57.8934836 -14.96052142 56.56442362 -16.3125 55.25 C-22.3125 47.88235294 -22.3125 47.88235294 -22.3125 45.25 C-22.92609375 45.00121094 -23.5396875 44.75242187 -24.171875 44.49609375 C-26.69146758 43.02939661 -27.33779177 41.92229492 -28.5625 39.3125 C-28.89765625 38.62285156 -29.2328125 37.93320312 -29.578125 37.22265625 C-30.3125 35.25 -30.3125 35.25 -30.3125 32.25 C-30.9725 32.25 -31.6325 32.25 -32.3125 32.25 C-34.71830385 25.03258845 -33.25525662 17.43126108 -31.3125 10.25 C-30.6525 10.25 -29.9925 10.25 -29.3125 10.25 C-29.02375 9.651875 -28.735 9.05375 -28.4375 8.4375 C-27.3125 6.25 -27.3125 6.25 -25.3125 3.25 C-24.6525 3.25 -23.9925 3.25 -23.3125 3.25 C-23.3125 2.59 -23.3125 1.93 -23.3125 1.25 C-21.6625 0.92 -20.0125 0.59 -18.3125 0.25 C-18.3125 -0.41 -18.3125 -1.07 -18.3125 -1.75 C-12.16815617 -3.59330315 -5.61917633 -2.96862146 0 0 Z " fill="#F9FBFB" transform="translate(201.3125,226.75)"/>
<path d="M0 0 C1.53445094 3.06890187 0.54984289 5.70094266 0 9 C-0.66 9 -1.32 9 -2 9 C-1.938125 10.3303125 -1.938125 10.3303125 -1.875 11.6875 C-1.8648965 15.09237892 -2.36310069 18.24628035 -2.96875 21.59375 C-4.34672654 30.3109494 -4.45659588 39.00724477 -4.625 47.8125 C-4.6632891 49.48764806 -4.70234665 51.16277875 -4.7421875 52.83789062 C-4.83696356 56.89178173 -4.92141344 60.94576408 -5 65 C-5.66 65 -6.32 65 -7 65 C-7 52.79 -7 40.58 -7 28 C-6.34 28 -5.68 28 -5 28 C-5.02320312 27.33355469 -5.04640625 26.66710937 -5.0703125 25.98046875 C-5.20537894 19.08243263 -4.45946583 12.73699852 -3 6 C-2.34 6 -1.68 6 -1 6 C-1.020625 5.195625 -1.04125 4.39125 -1.0625 3.5625 C-1 1 -1 1 0 0 Z " fill="#B6CFD1" transform="translate(94,206)"/>
<path d="M0 0 C0.66 0 1.32 0 2 0 C2.12117188 0.88300781 2.24234375 1.76601562 2.3671875 2.67578125 C2.53476562 3.87589844 2.70234375 5.07601563 2.875 6.3125 C3.03742188 7.48425781 3.19984375 8.65601563 3.3671875 9.86328125 C3.67497932 12.04003854 4.0367496 14.16596877 4.51220703 16.31323242 C6.40021087 25.102418 6.22422799 33.74855573 6.125 42.6875 C6.11494496 44.27538495 6.1058236 45.8632761 6.09765625 47.45117188 C6.07585443 51.30093725 6.04146559 55.15039827 6 59 C5.34 59 4.68 59 4 59 C3.97494385 57.88963379 3.9498877 56.77926758 3.92407227 55.63525391 C3.83005085 51.52396681 3.72981743 47.41285077 3.62768555 43.30175781 C3.5843167 41.52087397 3.54264306 39.73994802 3.50268555 37.95898438 C3.4450301 35.40221452 3.3813223 32.84565702 3.31640625 30.2890625 C3.29969376 29.49005524 3.28298126 28.69104797 3.26576233 27.86782837 C3.24607009 23.80193632 3.24607009 23.80193632 2 20 C1.781346 18.48181898 1.60981021 16.95666749 1.46484375 15.4296875 C1.37783203 14.53378906 1.29082031 13.63789063 1.20117188 12.71484375 C1.11416016 11.77769531 1.02714844 10.84054687 0.9375 9.875 C0.80118164 8.45767578 0.80118164 8.45767578 0.66210938 7.01171875 C0.43785901 4.67479389 0.21730943 2.33757884 0 0 Z " fill="#A1C2C5" transform="translate(423,252)"/>
<path d="M0 0 C1.58554688 -0.0009668 1.58554688 -0.0009668 3.203125 -0.00195312 C11.4524413 0.05337766 19.38055353 0.73016345 27.5 2.1875 C27.5 2.8475 27.5 3.5075 27.5 4.1875 C28.16 4.5175 28.82 4.8475 29.5 5.1875 C27.85 5.1875 26.2 5.1875 24.5 5.1875 C24.5 4.5275 24.5 3.8675 24.5 3.1875 C10.31 2.8575 -3.88 2.5275 -18.5 2.1875 C-18.5 1.8575 -18.5 1.5275 -18.5 1.1875 C-12.32235616 0.10294174 -6.26379451 -0.00393454 0 0 Z " fill="#CDDEE0" transform="translate(177.5,131.8125)"/>
<path d="M0 0 C0.74507813 0.00451172 1.49015625 0.00902344 2.2578125 0.01367188 C4.0885764 0.02540754 5.91929873 0.0433415 7.75 0.0625 C7.75 0.7225 7.75 1.3825 7.75 2.0625 C1.48 2.0625 -4.79 2.0625 -11.25 2.0625 C-11.91 3.3825 -12.57 4.7025 -13.25 6.0625 C-14.57774288 7.5235504 -15.95631676 8.93958074 -17.375 10.3125 C-18.09945313 11.01890625 -18.82390625 11.7253125 -19.5703125 12.453125 C-20.12460937 12.98421875 -20.67890625 13.5153125 -21.25 14.0625 C-22.24 13.7325 -23.23 13.4025 -24.25 13.0625 C-23.59 12.0725 -22.93 11.0825 -22.25 10.0625 C-21.59 10.0625 -20.93 10.0625 -20.25 10.0625 C-20.04375 9.505625 -19.8375 8.94875 -19.625 8.375 C-17.47975617 4.76708993 -14.34524518 1.74772588 -10.29785156 0.42407227 C-6.88691377 -0.1781689 -3.4513679 -0.03963585 0 0 Z " fill="#B5CFD1" transform="translate(298.25,371.9375)"/>
<path d="M0 0 C-0.53171838 4.02455812 -2.50221822 5.81522811 -5.375 8.5625 C-6.16648437 9.32691406 -6.95796875 10.09132812 -7.7734375 10.87890625 C-8.50820312 11.57886719 -9.24296875 12.27882812 -10 13 C-10.54914063 13.58652344 -11.09828125 14.17304688 -11.6640625 14.77734375 C-13 16 -13 16 -15 16 C-15 16.99 -15 17.98 -15 19 C-15.66 19 -16.32 19 -17 19 C-16.67 17.68 -16.34 16.36 -16 15 C-15.34 15 -14.68 15 -14 15 C-13.731875 14.4225 -13.46375 13.845 -13.1875 13.25 C-11.97070811 10.94449957 -10.69666121 8.97943808 -9 7 C-8.34 7 -7.68 7 -7 7 C-6.731875 6.401875 -6.46375 5.80375 -6.1875 5.1875 C-3.37142857 0 -3.37142857 0 0 0 Z " fill="#C1D7D9" transform="translate(130,150)"/>
<path d="M0 0 C0 0.66 0 1.32 0 2 C-7.53283595 4.51094532 -13.59607881 6.18161203 -21.5625 6.1875 C-22.43841797 6.19974609 -23.31433594 6.21199219 -24.21679688 6.22460938 C-25.47266602 6.22750977 -25.47266602 6.22750977 -26.75390625 6.23046875 C-27.90354858 6.23663208 -27.90354858 6.23663208 -29.07641602 6.24291992 C-31 6 -31 6 -33 4 C-27.39 4.33 -21.78 4.66 -16 5 C-16 4.34 -16 3.68 -16 3 C-12.7 3 -9.4 3 -6 3 C-6 2.34 -6 1.68 -6 1 C-3 0 -3 0 0 0 Z " fill="#73A5A9" transform="translate(357,423)"/>
<path d="M0 0 C0.33 0.66 0.66 1.32 1 2 C0.06414062 3.51787109 0.06414062 3.51787109 -0.890625 5.06640625 C-3.44597909 9.30737041 -3.65824316 13.07021684 -3.75 17.9375 C-3.77964844 18.71673828 -3.80929688 19.49597656 -3.83984375 20.29882812 C-3.90977701 22.19868177 -3.95724051 24.0993406 -4 26 C-7.20340812 21.19488782 -6.49782722 15.91829749 -5.546875 10.34375 C-5.07519564 8.21445462 -4.56948237 6.10505092 -4 4 C-3.34 4 -2.68 4 -2 4 C-1.34 2.68 -0.68 1.36 0 0 Z " fill="#A7C7C9" transform="translate(174,233)"/>
<path d="M0 0 C0.66 0.33 1.32 0.66 2 1 C-2.12891092 5.35829486 -4.48929847 7.81300361 -10.56640625 8.265625 C-11.88511719 8.26046875 -13.20382813 8.2553125 -14.5625 8.25 C-15.23474609 8.25773437 -15.90699219 8.26546875 -16.59960938 8.2734375 C-20.28422836 8.25880148 -21.85615148 8.09589902 -25 6 C-23.99839844 6.02320313 -22.99679688 6.04640625 -21.96484375 6.0703125 C-20.62240336 6.08908789 -19.27995482 6.10728618 -17.9375 6.125 C-16.62652344 6.14820313 -15.31554687 6.17140625 -13.96484375 6.1953125 C-9.88175701 5.99417522 -6.85000947 5.27165462 -3 4 C-3 3.34 -3 2.68 -3 2 C-2.01 1.34 -1.02 0.68 0 0 Z " fill="#A6C5C8" transform="translate(249,414)"/>
<path d="M0 0 C3 1.5625 3 1.5625 5 3 C2.3333581 4.33332095 0.83319697 3.67102033 -2 3 C-2 2.34 -2 1.68 -2 1 C-8.6 1 -15.2 1 -22 1 C-15.20029252 -2.39985374 -7.35825743 -1.3718785 0 0 Z " fill="#508F95" transform="translate(194,184)"/>
<path d="M0 0 C2.27113803 0.14100857 4.54190725 0.28796755 6.8125 0.4375 C8.07707031 0.51871094 9.34164062 0.59992188 10.64453125 0.68359375 C14 1 14 1 17 2 C18.89212737 2.22179785 20.78884472 2.40614015 22.6875 2.5625 C23.68136719 2.64628906 24.67523438 2.73007812 25.69921875 2.81640625 C26.83810547 2.90728516 26.83810547 2.90728516 28 3 C28 3.33 28 3.66 28 4 C7.47619048 4.42857143 7.47619048 4.42857143 1 2 C0.67 1.34 0.34 0.68 0 0 Z " fill="#AECACD" transform="translate(214,466)"/>
<path d="M0 0 C0.66 0 1.32 0 2 0 C1.41953188 3.50602742 0.19876969 5.20849502 -2.3125 7.6875 C-3.20388672 8.59048828 -3.20388672 8.59048828 -4.11328125 9.51171875 C-6.10874682 11.08578165 -7.51706615 11.58891824 -10 12 C-9.34 10.68 -8.68 9.36 -8 8 C-7.34 8 -6.68 8 -6 8 C-5.67 7.01 -5.34 6.02 -5 5 C-4.34 5 -3.68 5 -3 5 C-2.690625 4.360625 -2.38125 3.72125 -2.0625 3.0625 C-1 1 -1 1 0 0 Z " fill="#549196" transform="translate(271,360)"/>
<path d="M0 0 C1.53445094 3.06890187 0.54984289 5.70094266 0 9 C-0.66 9 -1.32 9 -2 9 C-1.938125 10.5778125 -1.938125 10.5778125 -1.875 12.1875 C-1.99147875 15.74010173 -2.47208068 17.84866641 -4 21 C-5.20220203 17.46905698 -4.79532349 14.87101018 -4.0625 11.25 C-3.86785156 10.26515625 -3.67320313 9.2803125 -3.47265625 8.265625 C-3.31667969 7.51796875 -3.16070312 6.7703125 -3 6 C-2.34 6 -1.68 6 -1 6 C-1.020625 5.195625 -1.04125 4.39125 -1.0625 3.5625 C-1 1 -1 1 0 0 Z " fill="#98BCBF" transform="translate(94,206)"/>
<path d="M0 0 C0.66 0 1.32 0 2 0 C1.63259093 8.08299944 0.74049239 15.36454007 -2 23 C-2.33 23 -2.66 23 -3 23 C-3.25043278 16.61396422 -3.25043278 16.61396422 -2.03125 13.625 C-0.89435726 10.73109121 -0.59859788 8.28060406 -0.375 5.1875 C-0.26285156 3.72376953 -0.26285156 3.72376953 -0.1484375 2.23046875 C-0.09945313 1.49441406 -0.05046875 0.75835937 0 0 Z " fill="#BED5D7" transform="translate(425,315)"/>
<path d="M0 0 C0.99 0.33 1.98 0.66 3 1 C3.33 1.99 3.66 2.98 4 4 C2.35 4 0.7 4 -1 4 C-1.226875 4.61875 -1.45375 5.2375 -1.6875 5.875 C-3.37929835 8.61410209 -4.99244161 9.05024472 -8 10 C-8 9.34 -8 8.68 -8 8 C-7.34 8 -6.68 8 -6 8 C-6 7.34 -6 6.68 -6 6 C-4.34997172 4.64613064 -2.6825613 3.31321858 -1 2 C-0.67 1.34 -0.34 0.68 0 0 Z " fill="#BFD6D8" transform="translate(192,350)"/>
<path d="M0 0 C0.99 0.33 1.98 0.66 3 1 C3 1.99 3 2.98 3 4 C1.02 4.66 -0.96 5.32 -3 6 C-3 6.66 -3 7.32 -3 8 C-3.99 7.67 -4.98 7.34 -6 7 C-4.02 4.69 -2.04 2.38 0 0 Z " fill="#B8D1D3" transform="translate(257,406)"/>
<path d="M0 0 C0 0.66 0 1.32 0 2 C-3.40351338 4.03219488 -6.3232927 4.36891039 -10.25 4.625 C-11.32765625 4.69976562 -12.4053125 4.77453125 -13.515625 4.8515625 C-14.33546875 4.90054687 -15.1553125 4.94953125 -16 5 C-16 4.34 -16 3.68 -16 3 C-12.7 3 -9.4 3 -6 3 C-6 2.34 -6 1.68 -6 1 C-3 0 -3 0 0 0 Z " fill="#AFCBCE" transform="translate(357,423)"/>
<path d="M0 0 C0.33 0.66 0.66 1.32 1 2 C-0.76227632 5.61730402 -2.64326421 7.80075931 -6 10 C-6.66 9.67 -7.32 9.34 -8 9 C-6.71937515 7.2925002 -5.38232443 5.62626404 -4 4 C-3.34 4 -2.68 4 -2 4 C-1.34 2.68 -0.68 1.36 0 0 Z " fill="#5D969B" transform="translate(230,313)"/>
<path d="M0 0 C0.33 0.66 0.66 1.32 1 2 C-1.01577062 6.50584021 -3.83128248 8.49876949 -8 11 C-6.79618552 8.50638429 -5.54571278 6.31856917 -4 4 C-3.34 4 -2.68 4 -2 4 C-1.34 2.68 -0.68 1.36 0 0 Z " fill="#679EA3" transform="translate(448,112)"/>
<path d="M0 0 C0.66 0.33 1.32 0.66 2 1 C1 4 1 4 -2 6 C-3.05104383 7.63495707 -4.05988318 9.29883624 -5 11 C-5.99 10.67 -6.98 10.34 -8 10 C-7.34 9.01 -6.68 8.02 -6 7 C-5.34 7 -4.68 7 -4 7 C-3.71125 6.401875 -3.4225 5.80375 -3.125 5.1875 C-2 3 -2 3 0 0 Z " fill="#B9D3D5" transform="translate(278,225)"/>
<path d="M0 0 C0.66 0.33 1.32 0.66 2 1 C0.63842622 6.29500913 -2.60343955 8.23745533 -7 11 C-5.79618552 8.50638429 -4.54571278 6.31856917 -3 4 C-2.34 4 -1.68 4 -1 4 C-0.67 2.68 -0.34 1.36 0 0 Z " fill="#6BA1A5" transform="translate(457,100)"/>
<path d="M0 0 C0.75 1.6875 0.75 1.6875 1 4 C-0.80450953 6.87384851 -2.01312923 8.64363 -5.25 9.8125 C-5.8275 9.874375 -6.405 9.93625 -7 10 C-5.63016497 6.83884224 -5.0109362 6.0072908 -2 4 C-0.80767387 1.94996045 -0.80767387 1.94996045 0 0 Z " fill="#5C969B" transform="translate(361,217)"/>
<path d="M0 0 C-0.33 1.32 -0.66 2.64 -1 4 C-1.99 4 -2.98 4 -4 4 C-4 4.66 -4 5.32 -4 6 C-5.96147874 7.38938077 -7.96166576 8.7260411 -10 10 C-9.1875 8.0625 -9.1875 8.0625 -8 6 C-7.01 5.67 -6.02 5.34 -5 5 C-5 4.34 -5 3.68 -5 3 C-2.46153846 0 -2.46153846 0 0 0 Z " fill="#ABC8CB" transform="translate(184,360)"/>
<path d="M0 0 C1.9375 0.625 1.9375 0.625 4 2 C4.75 5.125 4.75 5.125 5 8 C3.35 8.66 1.7 9.32 0 10 C0.99 7.69 1.98 5.38 3 3 C2.01 2.67 1.02 2.34 0 2 C0 1.34 0 0.68 0 0 Z " fill="#6A9FA3" transform="translate(271,195)"/>
<path d="M0 0 C0.33 0.66 0.66 1.32 1 2 C0.2884375 2.61875 0.2884375 2.61875 -0.4375 3.25 C-2.16266518 5.182185 -2.56584875 6.48192275 -3 9 C-4.32 9.33 -5.64 9.66 -7 10 C-5.79618552 7.50638429 -4.54571278 5.31856917 -3 3 C-2.34 3 -1.68 3 -1 3 C-0.67 2.01 -0.34 1.02 0 0 Z " fill="#77A6AB" transform="translate(371,205)"/>
<path d="M0 0 C0.33 0.66 0.66 1.32 1 2 C0.2884375 2.61875 0.2884375 2.61875 -0.4375 3.25 C-2.16266518 5.182185 -2.56584875 6.48192275 -3 9 C-4.32 9.33 -5.64 9.66 -7 10 C-5.79618552 7.50638429 -4.54571278 5.31856917 -3 3 C-2.34 3 -1.68 3 -1 3 C-0.67 2.01 -0.34 1.02 0 0 Z " fill="#75A4A8" transform="translate(381,193)"/>
<path d="M0 0 C0.66 0.99 1.32 1.98 2 3 C1.195625 3.61875 0.39125 4.2375 -0.4375 4.875 C-3.03874519 6.74164041 -3.03874519 6.74164041 -4 9 C-4.66 8.67 -5.32 8.34 -6 8 C-5.34 7.01 -4.68 6.02 -4 5 C-3.34 5 -2.68 5 -2 5 C-1.34 3.35 -0.68 1.7 0 0 Z " fill="#6FA2A7" transform="translate(392,394)"/>
<path d="M0 0 C0 3.57575896 -1.08840607 5.05295935 -3 8 C-3.99 7.67 -4.98 7.34 -6 7 C-5.34 6.01 -4.68 5.02 -4 4 C-3.34 4 -2.68 4 -2 4 C-1.34 2.68 -0.68 1.36 0 0 Z " fill="#B8D1D4" transform="translate(286,216)"/>
<path d="M0 0 C1.32 0.33 2.64 0.66 4 1 C4 1.66 4 2.32 4 3 C2.1875 4.0625 2.1875 4.0625 0 5 C-0.99 4.67 -1.98 4.34 -3 4 C-2.01 2.68 -1.02 1.36 0 0 Z " fill="#C7DADC" transform="translate(398,202)"/>
<path d="M0 0 C4.67461851 -0.32613618 7.16674383 0.29417212 11 3 C8.3333581 4.33332095 6.83319697 3.67102033 4 3 C4 2.34 4 1.68 4 1 C2.68 0.67 1.36 0.34 0 0 Z " fill="#669CA1" transform="translate(188,184)"/>
</svg>
